<?xml version="1.0" encoding="UTF-8"?>
<svg version="1.1" xmlns="http://www.w3.org/2000/svg" width="512" height="512">
<path d="M0 0 C2.8146072 0.00315077 5.62814922 -0.02036941 8.44262695 -0.0456543 C25.51442245 -0.10615396 42.13329659 1.92642347 58.71020508 6.06567383 C59.75772949 6.32533936 60.80525391 6.58500488 61.88452148 6.85253906 C98.9204388 16.2902523 132.62060176 34.6398884 160.42895508 60.80786133 C162.35091011 62.58069916 164.26447747 64.25510791 166.28442383 65.90551758 C168.59967681 67.85437309 170.52571693 69.69878355 172.46020508 72.00317383 C174.31358551 74.18765926 176.16875002 76.33795914 178.13598633 78.42114258 C215.66511051 118.28297283 235.58959173 174.96657327 235.46337891 229.16796875 C235.46022814 231.98257595 235.48374832 234.79611797 235.5090332 237.6105957 C235.56953287 254.6823912 233.53695543 271.30126534 229.39770508 287.87817383 C229.13803955 288.92569824 228.87837402 289.97322266 228.61083984 291.05249023 C219.15387635 328.1639503 200.74690524 361.80642346 174.57739258 389.69848633 C172.62988153 391.79628762 170.77682472 393.91877156 168.96020508 396.12817383 C165.71333106 399.95288136 161.9753432 403.08807798 158.14770508 406.31567383 C157.2221582 407.12907227 156.29661133 407.9424707 155.34301758 408.78051758 C141.46854978 420.90794498 126.50816783 430.86317794 110.14770508 439.31567383 C109.41922363 439.69820313 108.69074219 440.08073242 107.94018555 440.47485352 C76.50525563 456.82296825 41.58704758 464.71352741 6.29541016 464.63134766 C3.48080295 464.62819689 0.66726093 464.65171707 -2.1472168 464.67700195 C-19.2190123 464.73750162 -35.83788643 462.70492418 -52.41479492 458.56567383 C-53.46231934 458.3060083 -54.50984375 458.04634277 -55.58911133 457.77880859 C-92.62502864 448.34109536 -126.3251916 429.99145926 -154.13354492 403.82348633 C-156.05549995 402.0506485 -157.96906731 400.37623974 -159.98901367 398.72583008 C-162.30426665 396.77697457 -164.23030677 394.93256411 -166.16479492 392.62817383 C-168.01817536 390.44368839 -169.87333986 388.29338852 -171.84057617 386.21020508 C-210.30357457 345.35645358 -229.39782441 288.01629353 -229.16479492 232.62817383 C-229.16263977 231.70336212 -229.16048462 230.77855042 -229.15826416 229.82571411 C-229.10706295 216.12139952 -228.70970085 202.76483666 -225.85229492 189.31567383 C-225.54630371 187.83623291 -225.54630371 187.83623291 -225.23413086 186.3269043 C-216.37442735 144.44642809 -197.76859518 106.28642873 -168.36010742 75.03442383 C-166.58726959 73.1124688 -164.91286084 71.19890144 -163.26245117 69.17895508 C-161.31359566 66.8637021 -159.4691852 64.93766198 -157.16479492 63.00317383 C-154.98030949 61.14979339 -152.83000961 59.29462889 -150.74682617 57.32739258 C-110.88499592 19.7982684 -54.20139548 -0.12621282 0 0 Z " fill="#1DD65F" transform="translate(252.852294921875,23.684326171875)"/>
<path d="M0 0 C1.91824585 -0.00101212 1.91824585 -0.00101212 3.87524414 -0.00204468 C21.09232178 0.01239918 38.02279857 0.20782998 55.07861328 2.74951172 C58.16715093 3.20971685 61.25912052 3.63024 64.35473633 4.03968811 C106.11753768 9.59876329 146.35450666 20.71921972 184 39.9375 C184.85062012 40.36466309 185.70124023 40.79182617 186.57763672 41.23193359 C193.82946565 45.05705809 200.75553453 50.2041036 203.4375 58.25 C204.39736193 65.25699206 203.37775609 71.3231524 199.4375 77.25 C194.43378696 82.72379046 189.94432421 85.67511078 182.625 86.875 C175.6601542 86.71383001 169.55681387 82.5809755 163.55810547 79.37451172 C149.3957297 71.86450679 134.59690283 66.39621833 119.4375 61.25 C118.61507812 60.96382812 117.79265625 60.67765625 116.9453125 60.3828125 C50.78077388 37.57524117 -31.68662838 36.73515531 -98.5625 56.25 C-99.5525 56.745 -99.5525 56.745 -100.5625 57.25 C-107.80577391 58.34273529 -113.63326023 56.44066607 -119.5625 52.25 C-124.7512454 46.94571573 -126.67511905 42.36403494 -126.875 35 C-126.78103516 28.58476442 -125.43362173 24.10167847 -120.83203125 19.53125 C-113.38355948 13.46542868 -104.13496562 11.77339391 -94.9375 9.75 C-93.96385498 9.53424316 -92.99020996 9.31848633 -91.98706055 9.09619141 C-90.04808985 8.66865887 -88.1085689 8.24361285 -86.16845703 7.82128906 C-84.0244003 7.35125976 -81.88459767 6.86186701 -79.74609375 6.3671875 C-67.19098608 3.60302706 -54.34572282 2.45453515 -41.5625 1.25 C-40.57660889 1.15138672 -39.59071777 1.05277344 -38.57495117 0.95117188 C-25.75283188 -0.16109871 -12.85974134 0.00608772 0 0 Z " fill="#191514" transform="translate(222.5625,146.75)"/>
<path d="M0 0 C3.14945356 0.03148716 6.29840148 0.04103295 9.44799805 0.046875 C26.54377991 0.11009744 43.28238868 0.82698319 60.18823242 3.46875 C60.89478973 3.57762543 61.60134705 3.68650085 62.32931519 3.79867554 C98.08671611 9.35304352 132.36376606 20.49032682 164.37573242 37.46875 C165.26599121 37.93120117 166.15625 38.39365234 167.07348633 38.87011719 C173.37948577 42.33495205 178.90490857 46.71460231 182.18823242 53.28125 C182.71559415 59.48789192 182.95070724 65.06233332 179.18823242 70.28125 C174.72231736 74.75772278 171.17043662 77.37284783 164.69213867 77.7109375 C158.13342595 77.63261743 153.62173127 74.71910831 148.12573242 71.40625 C136.72648534 64.88014084 125.10000601 59.85310232 112.80834961 55.26367188 C110.65502774 54.4562765 108.51726108 53.62291107 106.38354492 52.765625 C89.74048998 46.33627859 71.94147201 43.20695837 54.37573242 40.46875 C53.7046344 40.36361084 53.03353638 40.25847168 52.34210205 40.15014648 C14.72121894 34.31881149 -40.67869275 30.71471259 -75.81176758 48.28125 C-81.79036506 49.08861616 -86.62408831 48.91878064 -91.81176758 45.65625 C-95.40460854 42.87967165 -97.56697474 40.76250421 -98.81176758 36.28125 C-99.41159526 30.69823846 -99.61505374 25.98050919 -97.18676758 20.84375 C-92.40730322 15.68695951 -88.38254594 12.60977431 -81.56176758 10.78125 C-80.83997314 10.57967285 -80.11817871 10.3780957 -79.37451172 10.17041016 C-72.72679329 8.38877477 -65.99918328 6.98961672 -59.24926758 5.65625 C-58.27763672 5.46224609 -57.30600586 5.26824219 -56.30493164 5.06835938 C-37.587473 1.54352676 -19.04347941 -0.19107669 0 0 Z " fill="#191514" transform="translate(210.811767578125,226.71875)"/>
<path d="M0 0 C0.78648926 0.16161621 1.57297852 0.32323242 2.38330078 0.48974609 C25.2135563 5.21567952 65.33142159 15.49713239 79 36 C79.70880848 41.25012791 79.62519342 45.70330253 77.3125 50.5 C73.5372968 54.58130075 70.7357567 56.20181895 65.1875 56.75 C57.38989099 56.5511348 51.44764921 52.08441213 44.97167969 48.17089844 C24.86729379 36.23174108 -0.013362 29.32478315 -23 26 C-23.90250488 25.85481934 -24.80500977 25.70963867 -25.73486328 25.56005859 C-62.2296198 19.70101077 -100.87810709 22.43623146 -136.8125 30.75 C-151.31091084 33.93822548 -151.31091084 33.93822548 -157.23046875 30.828125 C-160.63525567 28.10429546 -163.04786001 25.33752661 -164 21 C-164.46077591 16.77622083 -164.31341845 14.59201262 -162.3125 10.8125 C-151.72943252 -2.05879828 -128.27897639 -2.0302046 -112.40795898 -3.88037109 C-110.30177846 -4.12625166 -108.19678804 -4.38087424 -106.09179688 -4.63671875 C-70.37155761 -8.92820178 -35.18343558 -7.70012602 0 0 Z " fill="#191514" transform="translate(285,309)"/>
</svg>
